<?xml version="1.0" encoding="UTF-8" standalone="no"?>
<!DOCTYPE svg PUBLIC "-//W3C//DTD SVG 1.1//EN" "http://www.w3.org/Graphics/SVG/1.1/DTD/svg11.dtd">
<svg width="100%" height="100%" viewBox="0 0 456 419" version="1.1" xmlns="http://www.w3.org/2000/svg" xmlns:xlink="http://www.w3.org/1999/xlink" xml:space="preserve" xmlns:serif="http://www.serif.com/" style="fill-rule:evenodd;clip-rule:evenodd;stroke-linejoin:round;stroke-miterlimit:2;">
    <g transform="matrix(4.16667,0,0,4.16667,-1614.17,-352.713)">
        <path d="M470,100.7C475.3,99.731 479.85,103.286 484,104.7C491.981,107.42 491.909,114.987 494,121.7C496.852,130.856 491.479,139.102 485,142.7C480.625,145.129 471.62,145.914 464,144.45L405.2,144.45C401.333,144.35 397.9,142.983 394.9,140.35L394.8,140.2C392.067,137.167 390.7,133.583 390.7,129.45C390.7,125.483 392.067,122.017 394.8,119.05L394.9,118.95C398.033,116.15 401.55,114.75 405.45,114.75C406.95,114.75 408.25,114.867 409.35,115.1C409.65,115.134 409.933,115.1 410.2,115C410.5,114.9 410.733,114.717 410.9,114.45C411.1,114.183 411.217,113.917 411.25,113.65C411.683,108.85 413.15,104.517 415.65,100.651L415.65,100.7C416.683,99.001 417.917,97.45 419.35,96.051L419.35,96.1C423.75,91.7 428.917,89.084 434.85,88.251C436.283,88.051 437.767,87.95 439.3,87.95C446.9,87.95 453.417,90.667 458.85,96.1L459.05,96.2C459.183,96.301 459.317,96.45 459.45,96.651L459.6,96.85C461.067,98.45 462.4,100.051 463.6,101.65C463.667,101.717 463.75,101.8 463.85,101.9C464.017,102.134 464.283,102.333 464.65,102.5C464.95,102.6 465.283,102.6 465.65,102.5C466.25,102.3 469.267,100.834 470,100.7Z" style="fill:rgb(187,194,200);"/>
    </g>
    <g transform="matrix(4.16667,0,0,4.16667,-1614.17,-352.713)">
        <path d="M467.65,102C466.917,102.134 466.25,102.3 465.65,102.5C465.283,102.6 464.95,102.6 464.65,102.5C464.283,102.333 464.017,102.134 463.85,101.9C463.75,101.8 463.667,101.717 463.6,101.65C462.4,100.051 461.067,98.45 459.6,96.85L459.45,96.651C459.317,96.45 459.183,96.301 459.05,96.2L458.85,96.1C453.417,90.667 446.9,87.95 439.3,87.95C437.767,87.95 436.283,88.051 434.85,88.251C428.917,89.084 423.75,91.7 419.35,96.1L419.35,96.051C417.917,97.45 416.683,99.001 415.65,100.7L415.65,100.651C413.15,104.517 411.683,108.85 411.25,113.65C411.217,113.917 411.1,114.183 410.9,114.45C410.733,114.717 410.5,114.9 410.2,115C409.933,115.1 409.65,115.134 409.35,115.1C408.25,114.867 406.95,114.75 405.45,114.75C401.55,114.75 398.033,116.15 394.9,118.95L394.8,119.05C392.067,122.017 390.7,125.483 390.7,129.45C390.7,133.583 392.067,137.167 394.8,140.2L394.9,140.35C397.9,142.983 401.333,144.35 405.2,144.45L472.8,144.45C478.467,144.217 483.267,142.117 487.2,138.15C491.4,133.95 493.5,128.917 493.5,123.05C493.5,117.117 491.4,112.033 487.2,107.8C483.1,103.7 478.083,101.65 472.15,101.65C470.55,101.65 469.05,101.767 467.65,102ZM489.55,105.5C494.383,110.367 496.8,116.217 496.8,123.05C496.8,129.85 494.4,135.634 489.6,140.4L489.55,140.45C485.017,145.017 479.45,147.433 472.85,147.7L405.45,147.7C401.517,147.7 397.933,146.567 394.7,144.3C393.967,143.8 393.267,143.25 392.6,142.65L392.5,142.55C389.1,138.85 387.4,134.483 387.4,129.45C387.4,124.55 389.1,120.3 392.5,116.7L392.6,116.6C393.3,115.967 394.017,115.4 394.75,114.9C397.183,113.167 399.85,112.1 402.75,111.7C403.617,111.567 404.517,111.5 405.45,111.5C406.417,111.5 407.333,111.533 408.2,111.6C408.833,106.967 410.4,102.717 412.9,98.85C414.1,97.017 415.483,95.301 417.05,93.7C419.083,91.7 421.233,90.051 423.5,88.751C428.167,86.017 433.433,84.651 439.3,84.651C447.767,84.651 455.067,87.667 461.2,93.7C461.533,93.967 461.817,94.284 462.05,94.651C463.45,96.117 464.7,97.584 465.8,99.051C467.7,98.584 469.817,98.35 472.15,98.35C478.95,98.35 484.75,100.733 489.55,105.5Z" style="fill:rgb(63,63,78);"/>
    </g>
    <g transform="matrix(4.16667,0,0,4.16667,-1614.17,-352.713)">
        <path d="M444.3,155.3L432.25,155.3L427.95,131.55L453.65,131.55L456.45,155.3L444.3,155.3L447.45,183.7L433.05,166.6L444.3,155.3Z" style="fill:rgb(253,214,24);"/>
    </g>
    <g transform="matrix(4.16667,0,0,4.16667,-1614.17,-352.713)">
        <path d="M423.6,155.3L444.3,155.3L433.05,166.6L423.6,155.3Z" style="fill:rgb(233,181,32);"/>
    </g>
    <g transform="matrix(4.16667,0,0,4.16667,-1614.17,-352.713)">
        <path d="M432.25,156.8L444.3,156.8C445.128,156.8 445.8,156.129 445.8,155.3C445.8,154.472 445.128,153.8 444.3,153.8L432.25,153.8C431.422,153.8 430.75,154.472 430.75,155.3C430.75,156.129 431.422,156.8 432.25,156.8ZM433.05,166.6L434.2,165.638L426.81,156.8L432.25,156.8C432.695,156.8 433.116,156.603 433.401,156.262C433.686,155.92 433.805,155.471 433.726,155.033L429.746,133.05L452.316,133.05L454.763,153.8L444.3,153.8C443.871,153.8 443.468,153.98 443.182,154.3C442.896,154.619 442.762,155.039 442.809,155.465L445.414,178.954L434.197,165.634L434.2,165.638L433.05,166.6L431.902,167.566L446.303,184.666C446.729,185.172 447.434,185.339 448.041,185.079C448.649,184.818 449.014,184.192 448.941,183.535L445.975,156.8L456.45,156.8C456.879,156.8 457.286,156.617 457.571,156.297C457.856,155.976 457.99,155.55 457.94,155.124L455.14,131.374C455.051,130.619 454.41,130.05 453.65,130.05L427.95,130.05C427.505,130.05 427.084,130.247 426.799,130.589C426.514,130.93 426.395,131.38 426.474,131.817L430.454,153.8L423.6,153.8C423.017,153.8 422.488,154.136 422.241,154.665C421.994,155.194 422.075,155.815 422.449,156.262L431.899,167.562L431.902,167.566L433.05,166.6Z" style="fill:rgb(66,75,91);fill-rule:nonzero;"/>
    </g>
</svg>
